<?xml version="1.0" encoding="iso-8859-1"?>
<!-- Uploaded to: SVG Repo, www.svgrepo.com, Generator: SVG Repo Mixer Tools -->
<!DOCTYPE svg PUBLIC "-//W3C//DTD SVG 1.1//EN" "http://www.w3.org/Graphics/SVG/1.1/DTD/svg11.dtd">
<svg fill="#000000" version="1.1" id="Capa_1" xmlns="http://www.w3.org/2000/svg" xmlns:xlink="http://www.w3.org/1999/xlink" 
	 width="800px" height="800px" viewBox="0 0 252.127 252.127"
	 xml:space="preserve">
<g>
	<path d="M12.638,189.965v35.044c0,1.418-1.147,2.562-2.563,2.562c-1.416,0-2.563-1.156-2.563-2.562v-35.044
		c0-1.425,1.148-2.563,2.563-2.563C11.49,187.402,12.638,188.541,12.638,189.965z M73.879,187.402c-1.416,0-2.561,1.145-2.561,2.563
		v35.044c0,1.418,1.145,2.562,2.561,2.562s2.563-1.156,2.563-2.562v-35.044C76.443,188.541,75.295,187.402,73.879,187.402z
		 M2.56,197.644c-1.416,0-2.56,1.157-2.56,2.563v14.535c0,1.425,1.145,2.563,2.56,2.563c1.422,0,2.564-1.145,2.564-2.563v-14.529
		C5.124,198.801,3.982,197.644,2.56,197.644z M81.387,197.644c-1.416,0-2.563,1.157-2.563,2.563v14.535
		c0,1.425,1.148,2.563,2.563,2.563c1.416,0,2.564-1.145,2.564-2.563v-14.529C83.957,198.801,82.803,197.644,81.387,197.644z
		 M234.542,183.122c-1.419,0-2.569,1.157-2.569,2.569v19.224h-4.829c0.384-2.862,0.292-5.322,0.262-5.767
		c-0.012-0.219-0.049-0.444-0.134-0.646c-0.676-2.106-2.771-8.53-1.748-10.474c3.903-7.367,8.75-28.326,8.994-29.404
		c2.509-16.653-4.92-27.407-9.95-34.684c-5.997-8.671-16.203-14.413-19.668-16.191c-4.128-17.877-20.289-22.213-28.533-22.091
		c-11.855,0.39-26.257-6.041-30.689-8.178c0.146-8.172,1.431-13.067,1.754-14.2c3.653-5.943,4.816-10.467,3.55-13.847
		c-0.371-1.011-0.944-1.796-1.565-2.381c2.424-21.945-15.095-26.159-15.381-26.22c-0.171-0.019-4.329-0.779-7.273-0.506
		c-3.215-0.273-7.374,0.487-7.657,0.53c-0.18,0.036-17.689,4.256-15.262,26.195c-0.618,0.584-1.19,1.376-1.571,2.393
		c-1.267,3.379-0.106,7.904,3.541,13.84c0.326,1.139,1.602,6.035,1.76,14.2c-4.433,2.137-18.603,8.537-30.687,8.178
		c-8.242-0.152-24.43,4.214-28.537,22.14c-3.331,1.821-13.232,7.715-19.229,16.374l-0.661,0.95
		c-4.841,6.947-12.142,17.445-9.691,33.691c0.207,0.889,5.063,21.848,8.972,29.216c1.023,1.93-1.072,8.36-1.763,10.467
		c-0.07,0.201-0.113,0.421-0.125,0.646c-0.027,0.451-0.125,2.904,0.268,5.767h-5.995v-19.224c0-1.419-1.145-2.569-2.561-2.569
		c-1.422,0-2.563,1.157-2.563,2.569v43.58c0,1.425,1.148,2.563,2.563,2.563s2.561-1.145,2.561-2.563v-19.224h7.334
		c0.137,0.323,0.255,0.658,0.411,0.962c0.113,1.358,0.594,4.238,2.619,6.199c1.06,1.029,2.396,1.645,3.903,1.826
		c1.172,1.006,3.093,1.943,5.831,1.76c0.73,0.317,1.827,0.64,3.242,0.64c0.679,0,1.428-0.073,2.25-0.262
		c1.075,0.183,3.075,0.311,5.651-0.518c1.254,0.195,2.807,0,4.064-1.022c1.404-1.139,2.089-2.984,2.064-5.475
		c0.298-0.219,0.594-0.475,0.868-0.779c0.761-0.858,1.233-1.985,1.477-3.331h3.961v19.224c0,1.425,1.148,2.563,2.561,2.563
		c1.416,0,2.563-1.145,2.563-2.563v-43.58c0-1.419-1.148-2.569-2.563-2.569c-1.422,0-2.561,1.157-2.561,2.569v19.224h-4.028
		c-0.034-0.188-0.027-0.365-0.064-0.572c-0.055-0.305-0.162-0.591-0.317-0.858c-0.213-0.372-4.972-8.373-10.917-12.337
		c-0.481-4.202-0.911-9.95-0.524-11.63c1.559-6.82,3.13-16.344,0.098-24.034c3.742-1.376,10.166-3.995,13.195-6.704
		c2.792-2.479,4.933-4.494,6.823-6.613c1.65,5.919,6.993,14.157,20.569,24.923c-0.444,5.846-1.714,28.126,3.44,41.188
		c0.518,1.315,1.998,1.96,3.331,1.442c1.315-0.518,1.963-2.009,1.44-3.33c-5.392-13.676-3.011-39.976-2.987-40.243
		c0.083-0.871-0.286-1.724-0.977-2.266c-22.144-17.214-20.81-26.104-19.878-28.418c0.091-0.226,0.11-0.456,0.137-0.682
		c3.988,8.274,13.341,14.108,24.223,14.108c14.498,0,26.287-10.333,26.287-23.041v-10.571c0-1.419-1.145-2.563-2.561-2.563
		c-1.422,0-2.563,1.151-2.563,2.563v10.571c0,9.876-9.496,17.914-21.163,17.914s-21.163-8.031-21.163-17.914
		c0-1.413-1.147-2.564-2.563-2.564c-1.422,0-2.561,1.151-2.561,2.564c0,2.398,0.536,4.676,1.315,6.844
		c-0.177-0.164-0.362-0.341-0.587-0.45c-1.178-0.621-2.619-0.226-3.334,0.889c-3.063,4.743-5.651,7.374-10.644,11.831
		c-2.855,2.545-11.18,5.633-14.142,6.619c-0.743,0.244-1.328,0.804-1.604,1.541c-0.274,0.73-0.198,1.54,0.201,2.204
		c3.842,6.454,2.219,16.239,0.667,23.041c-0.773,3.41,0.351,12.794,0.582,14.65c0.104,0.81,0.584,1.517,1.297,1.918
		c4.582,2.552,8.866,9.091,9.907,10.754c0.494,3.221-0.106,4.159,0.119,4.237c-0.785,0-1.446,0.287-1.951,0.835
		c-0.518,0.56-0.755,1.327-0.648,2.082c0.311,2.241-0.07,2.856-0.171,2.729c-0.572-0.195-1.208-0.188-1.775,0.019
		c-2.344,0.9-3.796,0.511-3.812,0.511c-0.49-0.152-1.026-0.164-1.525-0.03c-1.791,0.512-2.771,0.006-2.789,0.006l0,0
		c-0.536-0.377-1.203-0.535-1.851-0.432c-1.896,0.273-2.6-0.494-2.606-0.494c-0.487-0.767-1.303-1.229-2.262-1.193
		c-0.801,0-1.172-0.219-1.403-0.438c-0.874-0.828-1.087-2.668-1.1-3.234c0-0.463-0.125-0.913-0.353-1.309
		c-1.534-2.582-1.717-7.258-1.653-9.225c1.632-5.049,3.154-10.656,1.309-14.121c-3.593-6.783-8.455-27.761-8.461-27.779
		c-2.122-14.029,4.226-23.139,8.86-29.8l0.673-0.962c6.378-9.213,18.301-15.241,18.419-15.296c0.709-0.353,1.221-1.029,1.37-1.814
		c2.987-15.564,16.861-19.406,23.632-19.193c15.79,0.341,33.829-9.055,34.589-9.45c0.84-0.445,1.364-1.315,1.364-2.271
		c0-11.289-2.031-17.415-2.119-17.671c-0.064-0.188-0.143-0.371-0.256-0.536c-3.729-5.979-3.562-8.616-3.318-9.475
		c0.158-0.548,0.387-0.682,0.313-0.646c1.215-0.377,1.97-1.577,1.781-2.831c-2.768-18.529,10.559-21.915,11.006-22.031
		c1.011-0.189,4.086-0.627,6.211-0.451c0.138,0.024,0.436,0.019,0.579,0c2.496-0.183,6.083,0.433,6.107,0.433
		c0.578,0.134,13.907,3.367,11.118,22.049c-0.183,1.254,0.42,2.405,1.638,2.776c0.049,0.024,0.311,0.171,0.457,0.694
		c0.244,0.858,0.402,3.495-3.318,9.48c-0.104,0.165-0.195,0.348-0.256,0.536c-0.092,0.256-2.125,6.394-2.125,17.671
		c0,0.95,0.523,1.82,1.37,2.271c0.767,0.396,18.992,9.876,34.593,9.45c6.966-0.262,20.654,3.629,23.638,19.193
		c0.158,0.81,0.694,1.498,1.437,1.839c0.128,0.055,12.446,5.864,18.901,15.192c4.457,6.455,11.191,16.21,9.012,30.653
		c-0.049,0.213-4.908,21.185-8.488,27.968c-1.857,3.495-0.335,9.085,1.303,14.121c0.073,1.96-0.115,6.631-1.649,9.225
		c-0.238,0.384-0.359,0.846-0.359,1.309c0,0.433-0.189,2.363-1.084,3.228c-0.231,0.226-0.561,0.469-1.406,0.444
		c-0.871-0.042-1.699,0.316-2.187,1.084c-0.073,0.104-0.779,0.883-2.728,0.609c-0.555-0.104-1.273,0.098-1.767,0.383
		c-0.042,0.019-0.998,0.573-2.837,0.037c-0.463-0.128-1.011-0.109-1.474,0.012c-0.049,0.019-1.517,0.402-3.879-0.492
		c-0.578-0.214-1.278-0.11-1.857,0.109c0-0.006-0.401-0.646-0.098-2.856c0.11-0.755,0.073-1.485-0.438-2.052
		c-0.511-0.566-1.096-0.84-1.802-0.798c0,0-0.141-0.219-0.256-0.657c0.499-0.457,0.815-1.121,0.815-1.857
		c0-0.719-0.292-1.357-0.761-1.82c1.06-1.693,5.304-8.178,9.883-10.717c0.719-0.396,1.193-1.108,1.297-1.937
		c0.237-1.845,1.358-11.229,0.572-14.639c-1.547-6.813-3.154-16.617,0.664-23.041c0.39-0.658,0.475-1.474,0.194-2.204
		c-0.268-0.731-0.864-1.297-1.595-1.541c-2.972-0.98-11.283-4.067-14.146-6.619c-4.987-4.463-7.568-7.094-10.649-11.837
		c-0.719-1.108-2.168-1.492-3.344-0.877c-0.188,0.098-0.347,0.249-0.486,0.384c0.761-2.149,1.29-4.402,1.29-6.771
		c0-1.413-1.15-2.563-2.563-2.563c-1.412,0-2.557,1.151-2.557,2.563c0,9.877-9.487,17.914-21.166,17.914
		c-11.667,0-21.166-8.031-21.166-17.914v-10.57c0-1.419-1.151-2.564-2.569-2.564c-1.413,0-2.555,1.151-2.555,2.564v10.57
		c0,12.708,11.791,23.041,26.29,23.041c10.839,0,20.155-5.79,24.174-14.011c0.03,0.201,0.042,0.39,0.134,0.597
		c0.932,2.314,2.277,11.186-19.881,28.418c-0.688,0.549-1.06,1.4-0.98,2.266c0.024,0.262,2.424,26.561-2.983,40.243
		c-0.524,1.315,0.121,2.807,1.431,3.324c1.303,0.524,2.807-0.134,3.324-1.442c5.17-13.068,3.892-35.348,3.44-41.188
		c13.591-10.777,18.932-19.004,20.594-24.929c1.888,2.118,4.019,4.128,6.808,6.618c3.021,2.717,9.45,5.328,13.189,6.705
		c-3.008,7.666-1.449,17.201,0.098,24.033c0.39,1.688-0.037,7.429-0.524,11.625c-5.961,3.957-10.704,11.971-10.911,12.342
		c-0.158,0.262-0.269,0.549-0.317,0.853c-0.036,0.207-0.036,0.384-0.072,0.579h-5.176v-19.224c0-1.419-1.151-2.563-2.558-2.563
		c-1.425,0-2.57,1.15-2.57,2.563v43.58c0,1.425,1.151,2.563,2.57,2.563c1.412,0,2.558-1.145,2.558-2.563v-19.224h5.103
		c0.249,1.34,0.712,2.473,1.474,3.331c0.273,0.304,0.566,0.565,0.864,0.779c-0.03,2.503,0.646,4.341,2.064,5.479
		c1.267,1.023,2.813,1.219,4.062,1.023c2.569,0.822,4.579,0.707,5.663,0.518c2.515,0.555,4.396,0.086,5.468-0.365
		c2.722,0.152,4.677-0.768,5.852-1.766c1.51-0.183,2.844-0.798,3.903-1.827c2.033-1.96,2.509-4.847,2.624-6.204
		c0.152-0.311,0.274-0.652,0.408-0.963h6.175v19.224c0,1.425,1.156,2.563,2.569,2.563c1.419,0,2.558-1.145,2.558-2.563v-43.58
		C237.124,184.279,235.967,183.122,234.542,183.122z M178.248,187.402c-1.419,0-2.564,1.145-2.564,2.563v35.044
		c0,1.418,1.157,2.562,2.564,2.562c1.406,0,2.551-1.156,2.551-2.562v-35.044C180.799,188.541,179.666,187.402,178.248,187.402z
		 M242.068,187.402c-1.432,0-2.57,1.145-2.57,2.563v35.044c0,1.418,1.151,2.562,2.57,2.562c1.412,0,2.557-1.156,2.557-2.562v-35.044
		C244.625,188.541,243.475,187.402,242.068,187.402z M170.739,197.644c-1.425,0-2.563,1.157-2.563,2.563v14.535
		c0,1.425,1.151,2.563,2.563,2.563c1.413,0,2.563-1.145,2.563-2.563v-14.529C173.303,198.801,172.164,197.644,170.739,197.644z
		 M249.57,197.644c-1.426,0-2.558,1.157-2.558,2.563v14.535c0,1.425,1.145,2.563,2.558,2.563c1.418,0,2.557-1.145,2.557-2.563
		v-14.529C252.127,198.801,250.982,197.644,249.57,197.644z M161.095,135.236c0-2.039-1.632-3.689-3.63-3.689
		c-1.997,0-3.604,1.656-3.604,3.689c0,2.053,1.607,3.696,3.604,3.696C159.463,138.92,161.095,137.289,161.095,135.236z
		 M92.244,135.236c0,2.053,1.608,3.696,3.614,3.696c1.997,0,3.611-1.644,3.611-3.696c0-2.039-1.614-3.689-3.611-3.689
		C93.852,131.541,92.244,133.197,92.244,135.236z M126.617,151.239c-13.916,0-25.233,11.308-25.233,25.233v29.131
		c0,1.412,1.148,2.562,2.563,2.562s2.561-1.156,2.561-2.562v-29.131c0-11.088,9.024-20.119,20.109-20.119
		c11.089,0,20.119,9.024,20.119,20.119v30.221c0,1.425,1.145,2.563,2.558,2.563c1.425,0,2.569-1.146,2.569-2.563v-30.221
		C151.852,162.552,140.525,151.239,126.617,151.239z M133.985,186.197c0.024,0,0.037,0,0.049,0c5.151,0,8.805-3.623,8.97-3.77
		c0.998-1.005,0.992-2.625-0.013-3.629c-0.992-0.992-2.624-0.992-3.629,0.012c-0.019,0.024-2.332,2.266-5.315,2.266
		c-0.013,0-0.024,0-0.037,0c-1.644-0.006-3.258-0.768-4.822-2.187v-4.098c1.54,0.73,3.142,1.12,4.811,1.126c0.012,0,0.036,0,0.049,0
		c5.151,0,8.805-3.635,8.963-3.787c0.998-1.005,0.986-2.624-0.013-3.623c-1.011-0.998-2.63-0.992-3.629,0.012
		c-0.019,0.019-2.332,2.271-5.321,2.271c-0.013,0-0.013,0-0.024,0c-1.656-0.006-3.271-0.767-4.835-2.168v-4.548
		c0-1.419-1.148-2.563-2.563-2.563c-1.422,0-2.561,1.156-2.561,2.563v4.548c-1.559,1.389-3.164,2.15-4.795,2.162
		c-3.124,0.067-5.325-2.217-5.395-2.283c-0.989-0.992-2.606-0.999-3.617,0c-1.001,0.998-1.008,2.618-0.012,3.623
		c0.155,0.158,3.812,3.787,8.966,3.787c0.013,0,0.024,0,0.046,0c1.662-0.006,3.273-0.39,4.813-1.126v4.104
		c-1.559,1.407-3.169,2.149-4.801,2.181c-0.018,0-0.045,0-0.064,0c-2.962,0-5.279-2.223-5.325-2.277
		c-1.004-0.993-2.618-0.993-3.617,0c-1.001,0.998-1.008,2.618-0.012,3.629c0.155,0.146,3.812,3.77,8.96,3.77
		c0.013,0,0.031,0,0.046,0c1.668-0.007,3.273-0.385,4.813-1.115v5.469c-1.559,1.4-3.169,2.155-4.801,2.174c-0.018,0-0.045,0-0.064,0
		c-2.95,0-5.255-2.205-5.325-2.266c-0.989-0.986-2.606-0.998-3.617-0.006c-1.001,0.986-1.008,2.618-0.012,3.629
		c0.155,0.146,3.806,3.775,8.96,3.775c0.019,0,0.031,0,0.052,0c1.663-0.006,3.273-0.384,4.813-1.12v0.998
		c0,1.413,1.148,2.563,2.561,2.563c1.416,0,2.563-1.156,2.563-2.563v-1.011c1.541,0.737,3.143,1.114,4.811,1.127
		c0.024,0,0.037,0,0.049,0c5.151,0,8.805-3.629,8.957-3.775c0.992-1.005,0.986-2.606-0.012-3.611
		c-0.993-0.998-2.612-0.998-3.623-0.012c-0.019,0.018-2.399,2.144-5.383,2.266c-1.639-0.019-3.246-0.78-4.805-2.181v-5.462
		C130.722,185.813,132.329,186.191,133.985,186.197z M126.63,205.06c-1.72,0-3.111,1.389-3.111,3.118
		c0,1.724,1.391,3.111,3.111,3.111c1.711,0,3.093-1.388,3.093-3.111C129.717,206.455,128.341,205.06,126.63,205.06z M38.824,139.091
		c-0.137,1.406,0.898,2.66,2.308,2.795c0.083,0.006,0.162,0.012,0.25,0.012c1.309,0,2.42-0.992,2.551-2.32
		c0.067-0.719,1.912-17.524,21.991-19.205c1.41-0.122,2.463-1.352,2.338-2.765c-0.113-1.406-1.309-2.49-2.761-2.338
		C41.196,117.31,38.846,138.872,38.824,139.091z M209.345,140.089c0.104,1.346,1.218,2.375,2.558,2.375c0.061,0,0.128,0,0.183-0.006
		c1.413-0.098,2.473-1.328,2.369-2.746c-1.772-24.309-23.328-26.842-23.547-26.86c-1.443-0.183-2.667,0.871-2.808,2.284
		c-0.152,1.406,0.871,2.667,2.271,2.813C191.102,118.022,207.884,120.013,209.345,140.089z"/>
</g>
</svg>