<?xml version="1.0" encoding="UTF-8" standalone="no"?>
<!-- Uploaded to: SVG Repo, www.svgrepo.com, Generator: SVG Repo Mixer Tools -->
<svg width="800px" height="800px" viewBox="0 -3 64 64" version="1.1" xmlns="http://www.w3.org/2000/svg" xmlns:xlink="http://www.w3.org/1999/xlink" xmlns:sketch="http://www.bohemiancoding.com/sketch/ns">
    
    <title>Mail-empty</title>
    <desc>Created with Sketch.</desc>
    <defs>
</defs>
    <g id="Page-1" stroke="none" stroke-width="1" fill="none" fill-rule="evenodd" sketch:type="MSPage">
        <g id="Mail-empty" sketch:type="MSLayerGroup" transform="translate(1.000000, 2.000000)" stroke="#6B6C6E" stroke-width="2">
            <path d="M0,53 C0,54.1 0.9,55 2,55 L60,55 C61.1,55 62,54.1 62,53 L62,19 C62,17.9 61.1,17 60,17 L31,0 L2,17 C0.9,17 0,17.9 0,19 L0,53 L0,53 Z" id="Shape" sketch:type="MSShapeGroup">
</path>
            <path d="M62,19 C62,17.9 31,41 31,41 L31,41 C22.6,34.8 0,18.1 0,19" id="Shape" sketch:type="MSShapeGroup">
</path>
            <path d="M61,54 L37,37" id="Shape" sketch:type="MSShapeGroup">
</path>
            <path d="M1,54 L25,37" id="Shape" sketch:type="MSShapeGroup">
</path>
        </g>
    </g>
</svg>